<?xml version="1.0" encoding="UTF-8"?>
<svg xmlns="http://www.w3.org/2000/svg" version="1.1" viewBox="0 0 72 72">
  <defs>
    <style>
      .cls-1 {
        fill: #e76f51;
      }
    </style>
  </defs>
  <!-- Generator: Adobe Illustrator 28.6.0, SVG Export Plug-In . SVG Version: 1.2.0 Build 709)  -->
  <g>
    <g id="Layer_1">
      <path class="cls-1" d="M55.12,2.83h-28.97c-.47,0-.85.38-.85.85,0,.15.05.29.12.41.03.05.06.1.1.14.02.02.03.04.05.06.03.04.06.08.1.11.63.46.99,1.16.99,1.92s-.34,1.38-.91,1.84c-.17.09-.31.23-.39.41-.04.1-.07.22-.07.34,0,0,0,.01,0,.02v10.49s0,.02,0,.04v3.32h14.24c.24,0,.44-.2.44-.44v-3.7c0-.39.46-.58.73-.32l7.59,7.16c.18.17.18.46,0,.63l-3.78,3.57-3.81,3.59c-.27.26-.73.07-.73-.32v-3.7c0-.24-.2-.44-.44-.44h-13.4s0,0,0,0h-8.88c-2.2,0-3.99,1.8-3.99,4.01v30.23s0,.02,0,.04v2.66c0,1.89,1.62,3.42,3.61,3.42h28.97c.47,0,.85-.38.85-.85,0-.27-.14-.51-.34-.66-.02-.01-.02-.03-.04-.04-.63-.46-.99-1.16-.99-1.92s.36-1.46.99-1.92c0,0,0,0,.01-.01.21-.15.36-.39.36-.67h0s0,0,0,0,0,0,0,0v-13.87h-13.47c-.25,0-.44.2-.44.44v3.7c0,.39-.46.58-.74.32l-7.58-7.16c-.18-.17-.18-.46,0-.63l3.76-3.55,3.82-3.61c.28-.26.74-.07.74.32v3.7c0,.24.19.44.44.44h13.47s8.03,0,8.03,0c2.2,0,3.99-1.79,3.99-3.99V12.81s0-.03,0-.04v-6.51c0-1.89-1.62-3.42-3.61-3.42ZM44.05,63.93c-.26.54-.41,1.14-.41,1.76s.15,1.23.41,1.77h-27.18c-1.06,0-1.91-.77-1.91-1.73v-.11c0-.94.86-1.71,1.91-1.71h27.17ZM57.03,6.3v.06c0,.91-.81,1.65-1.82,1.7h-27.26c.26-.53.4-1.12.4-1.73s-.15-1.25-.42-1.79h27.19c1.05,0,1.91.77,1.91,1.73v.04Z"/>
    </g>
  </g>
</svg>