<svg width="24" height="24" viewBox="0 0 48 48" fill="none" xmlns="http://www.w3.org/2000/svg">
<path d="M24.0002 47.906C37.0552 47.906 47.9062 37.078 47.9062 24C47.9062 10.945 37.0312 0.0939941 23.9762 0.0939941C10.8992 0.0939941 0.0952148 10.945 0.0952148 24C0.0952148 37.078 10.9222 47.906 24.0002 47.906ZM20.7662 36.023C19.9702 36.023 19.3602 35.672 18.6812 34.875L11.9312 26.531C11.5792 26.086 11.3682 25.523 11.3682 25.008C11.3682 23.906 12.2352 23.063 13.2662 23.063C13.9462 23.063 14.5092 23.32 15.0712 24.047L20.6732 31.289L31.5712 13.829C32.0172 13.102 32.6262 12.75 33.2352 12.75C34.2672 12.75 35.2752 13.43 35.2752 14.555C35.2752 15.07 34.9702 15.633 34.6652 16.102L22.7582 34.875C22.2422 35.648 21.5862 36.023 20.7662 36.023Z" fill="#00A36C"/>
</svg>
