<svg width="22" height="22" viewBox="0 0 22 22" fill="none" xmlns="http://www.w3.org/2000/svg">
<g clip-path="url(#clip0_535_157)">
<path d="M21.6134 19.7466L16.6375 14.7707C17.8355 13.1759 18.4822 11.2346 18.48 9.24C18.48 4.1451 14.3349 0 9.24 0C4.1451 0 0 4.1451 0 9.24C0 14.3349 4.1451 18.48 9.24 18.48C11.2346 18.4822 13.1759 17.8355 14.7707 16.6375L19.7466 21.6134C19.9985 21.8386 20.327 21.9588 20.6647 21.9493C21.0024 21.9399 21.3237 21.8015 21.5626 21.5626C21.8015 21.3237 21.9399 21.0024 21.9493 20.6647C21.9588 20.327 21.8386 19.9985 21.6134 19.7466ZM2.64 9.24C2.64 7.93464 3.02708 6.6586 3.7523 5.57324C4.47752 4.48787 5.5083 3.64193 6.71429 3.1424C7.92028 2.64286 9.24732 2.51215 10.5276 2.76682C11.8079 3.02148 12.9839 3.65007 13.9069 4.57309C14.8299 5.49612 15.4585 6.67213 15.7132 7.9524C15.9678 9.23268 15.8371 10.5597 15.3376 11.7657C14.8381 12.9717 13.9921 14.0025 12.9068 14.7277C11.8214 15.4529 10.5454 15.84 9.24 15.84C7.49022 15.8379 5.8127 15.1419 4.57541 13.9046C3.33813 12.6673 2.6421 10.9898 2.64 9.24Z" fill="#ACABAB"/>
</g>
<defs>
<clipPath id="clip0_535_157">
<rect width="22" height="22" fill="white"/>
</clipPath>
</defs>
</svg>
